Coordinates
version=1
nRows=13
nColumns=40
inDegrees=yes

Units are S.I. units (second, meters, Newtons, ...)
Angles are in degrees.

endheader
time	pelvis_tilt	pelvis_list	pelvis_rotation	pelvis_tx	pelvis_ty	pelvis_tz	hip_flexion_r	hip_adduction_r	hip_rotation_r	knee_angle_r	knee_angle_r_beta	ankle_angle_r	subtalar_angle_r	mtp_angle_r	hip_flexion_l	hip_adduction_l	hip_rotation_l	knee_angle_l	knee_angle_l_beta	ankle_angle_l	subtalar_angle_l	mtp_angle_l	lumbar_extension	lumbar_bending	lumbar_rotation	arm_flex_r	arm_add_r	arm_rot_r	elbow_flex_r	pro_sup_r	wrist_flex_r	wrist_dev_r	arm_flex_l	arm_add_l	arm_rot_l	elbow_flex_l	pro_sup_l	wrist_flex_l	wrist_dev_l
     41.43000000	     -3.37846143	     -5.16020025	     -2.99839008	      0.89240634	      0.91644369	      0.57034981	     14.46974196	      7.41893167	     -6.00071465	     26.77574037	     26.77574037	     17.46763146	     -6.92384151	     -0.91602627	     18.36731333	    -14.11417791	      3.42204545	     60.81404501	     60.81404501	      8.71615081	    -18.56253794	     10.32751492	     -8.89583989	      5.20092845	      0.61682030	     10.17181984	    -11.89767524	     -3.67499838	     36.73064953	     45.80696037	      0.00000000	      0.00000000	     14.37739007	     -8.87301672	    -10.43342854	     39.17423495	     45.74514055	      0.00000000	      0.00000000
     41.45307143	     -3.27118686	     -5.21256255	     -2.98597306	      0.89121881	      0.91443569	      0.57262854	     14.68336442	      7.79303457	     -5.27242494	     27.82256480	     27.82256480	     17.88940791	     -8.38655755	     -0.82091472	     19.17231839	    -14.39368981	      4.10430807	     62.78052826	     62.78052826	      9.62811299	    -18.94882123	     11.58684814	     -8.81590086	      5.01823366	      0.08253544	     13.22283094	    -11.68323434	     -3.63026239	     38.79656897	     45.74384736	      0.00000000	      0.00000000	     11.59420816	     -8.68032795	    -10.11063472	     36.15139017	     45.67656422	      0.00000000	      0.00000000
     41.47614286	     -3.06197080	     -5.27832165	     -2.94577601	      0.88997512	      0.91266895	      0.57470263	     14.71118948	      8.12116824	     -4.75396126	     28.78605420	     28.78605420	     18.54821965	     -9.35977772	     -0.25939720	     19.94736760	    -14.53378353	      5.00701853	     64.66847066	     64.66847066	     11.92497480	    -19.11488746	     16.58768658	     -8.90247557	      4.87733111	      0.40167792	     15.52790443	    -12.34741106	     -2.25555234	     42.50273341	     45.54544058	      0.00000000	      0.00000000	      9.99253449	     -8.11011450	     -9.11700289	     31.26778157	     45.59009833	      0.00000000	      0.00000000
     41.49921429	     -2.87730785	     -5.32416747	     -2.84931761	      0.88858615	      0.91100160	      0.57663069	     14.73559952	      8.38301929	     -4.43358909	     29.67296806	     29.67296806	     19.09024827	    -10.14738520	      0.09221297	     20.65979581	    -14.82925922	      5.67838244	     65.90139877	     65.90139877	     13.13389646	    -19.27566598	     18.55102408	     -9.05585468	      4.70600847	      0.25551701	     18.30090824	    -12.66652148	     -1.31064175	     46.13282902	     45.38747947	      0.00000000	      0.00000000	      7.61043604	     -7.70164470	     -8.19200581	     28.04481436	     45.48643435	      0.00000000	      0.00000000
     41.52228571	     -2.74867043	     -5.34487792	     -2.68466715	      0.88713791	      0.90966290	      0.57828780	     14.70467486	      8.58274503	     -4.23899233	     30.32771988	     30.32771988	     19.50988503	    -10.81159020	      0.06835336	     21.35546400	    -15.16416234	      6.22926671	     66.39331981	     66.39331981	     13.85761871	    -19.38186622	     18.96723352	     -9.17303524	      4.52315353	      0.02148588	     21.69063830	    -12.56233323	     -1.32119389	     48.55171658	     45.32042634	      0.00000000	      0.00000000	      4.95247231	     -7.31532205	     -7.83172908	     26.04246913	     45.40174702	      0.00000000	      0.00000000
     41.54535714	     -2.66110407	     -5.29684257	     -2.51063970	      0.88552404	      0.90878481	      0.57945610	     14.60615039	      8.68051031	     -4.03702407	     30.74465963	     30.74465963	     19.91034569	    -11.34207859	      0.64452876	     22.19029394	    -15.32359009	      6.77794112	     66.40519495	     66.40519495	     15.36203258	    -19.45735694	     21.63771474	     -9.27967144	      4.28914827	      0.21150594	     24.39901307	    -13.50202422	      0.42321035	     52.59951750	     45.12920927	      0.00000000	      0.00000000	      3.15216221	     -6.89677402	     -6.03717511	     22.97787200	     45.12546574	      0.00000000	      0.00000000
     41.56842857	     -2.61220260	     -5.21370680	     -2.22307855	      0.88375960	      0.90841485	      0.58020934	     14.43246873	      8.66465342	     -4.05555353	     30.89387406	     30.89387406	     20.10724627	    -11.67663202	      0.70055838	     23.03863700	    -15.52845222	      7.10254259	     65.54529882	     65.54529882	     15.93640030	    -19.50171071	     21.73941214	     -9.40463221	      4.03132624	      0.15478685	     27.86844319	    -13.57767719	      0.31618985	     54.88918254	     45.07460626	      0.00000000	      0.00000000	      0.94591116	     -6.50419711	     -5.61470328	     21.70633159	     45.01584515	      0.00000000	      0.00000000
     41.59150000	     -2.65702096	     -5.04314131	     -1.82237494	      0.88184965	      0.90860899	      0.58037675	     14.20904963	      8.49211353	     -4.22893409	     30.71171043	     30.71171043	     20.18940255	    -11.89304339	      0.85938346	     24.02267013	    -15.56298057	      7.31818643	     63.95408191	     63.95408191	     16.49476770	    -19.52922086	     21.97809603	     -9.45752734	      3.72956174	      0.12479973	     31.18106764	    -13.88706633	      0.58805326	     57.48547143	     44.99542428	      0.00000000	      0.00000000	     -1.03533457	     -6.19054860	     -4.96967374	     20.72549374	     44.85532131	      0.00000000	      0.00000000
     41.61457143	     -2.74998589	     -4.84003857	     -1.31264456	      0.87971857	      0.90928109	      0.57997510	     13.96845360	      8.20685951	     -4.58079877	     30.35677141	     30.35677141	     20.20596267	    -11.89649717	      1.01585016	     25.09826806	    -15.46832414	      7.42335169	     61.68533327	     61.68533327	     16.75661407	    -19.53497104	     21.89027545	     -9.55324271	      3.40336230	      0.34618630	     34.26132278	    -14.84721505	      1.52265683	     60.64285865	     44.88023239	      0.00000000	      0.00000000	     -2.90309387	     -5.99518995	     -3.59369098	     20.51689462	     44.52652032	      0.00000000	      0.00000000
     41.63764286	     -3.01884933	     -4.51792832	     -0.68502171	      0.87730158	      0.91032444	      0.57895786	     13.81798210	      7.75029615	     -4.99202286	     29.76127687	     29.76127687	     20.09453114	    -11.91873023	      1.15734083	     26.35315474	    -15.10708818	      7.39924936	     58.75588086	     58.75588086	     16.76284877	    -19.50009456	     21.84837380	     -9.42990433	      3.00495370	      0.88545329	     37.63521732	    -15.75289159	      1.20775388	     62.09935499	     44.86149910	      0.00000000	      0.00000000	     -4.05277439	     -5.72901598	     -3.35642213	     20.25559252	     44.45247781	      0.00000000	      0.00000000
     41.66071429	     -3.11620950	     -4.20960368	      0.11623940	      0.87492760	      0.91201080	      0.57746351	     13.30804181	      7.22077305	     -5.73148263	     28.84345931	     28.84345931	     19.75371537	    -11.66137581	      0.72751200	     27.20647926	    -14.66599869	      7.20192287	     54.96346700	     54.96346700	     15.61336071	    -19.43899783	     19.07260156	     -9.58524846	      2.69977663	      1.09344513	     40.53175253	    -17.00765844	      2.32389553	     65.82334966	     44.91460641	      0.00000000	      0.00000000	     -7.00499405	     -7.82979690	     12.72379207	     24.67772565	     41.49477028	      0.00000000	      0.00000000
     41.68378571	     -3.34545230	     -3.83453047	      0.99749759	      0.87233646	      0.91392749	      0.57534699	     12.87534302	      6.58113008	     -6.52546380	     27.80538508	     27.80538508	     19.52119197	    -11.28841088	      0.89938759	     28.11100734	    -13.85565163	      7.10894802	     50.78384302	     50.78384302	     14.83763859	    -19.29850444	     18.34055534	     -9.62084977	      2.31131300	      1.19378848	     43.82075386	    -17.69610648	      2.10218143	     67.85483181	     44.87798810	      0.00000000	      0.00000000	     -7.98660029	     -7.70535138	     12.85545664	     24.89795258	     41.52403326	      0.00000000	      0.00000000
     41.70685714	     -3.69551119	     -3.47673377	      2.00006896	      0.86966180	      0.91568856	      0.57284813	     12.54102617	      5.93879959	     -7.43022018	     26.70512587	     26.70512587	     19.15527640	    -11.02385802	      0.71842414	     28.83037673	    -13.00182512	      6.82592815	     45.85780825	     45.85780825	     12.15187094	    -19.08649699	     13.17089883	     -9.56816143	      1.94779535	      1.53798934	     46.70182741	    -19.08209330	      2.33109957	     70.49025497	     44.83337444	      0.00000000	      0.00000000	     -9.04878541	     -8.01028808	     13.55058907	     26.62705309	     41.63789729	      0.00000000	      0.00000000
